<svg width="48" height="30" viewBox="0 0 48 30" fill="none" xmlns="http://www.w3.org/2000/svg">
<rect y="10.0625" width="26.3648" height="11.1195" rx="1" fill="black"/>
<path d="M19.5971 1.24006L24.5386 9.35956C24.7483 9.70405 24.8749 9.91334 24.9545 10.0701C24.9604 10.0817 24.9657 10.0924 24.9705 10.1022C24.9596 10.1033 24.9477 10.1043 24.9347 10.1053C24.7594 10.1188 24.5148 10.1195 24.1115 10.1195H14.7458C14.4991 10.1195 14.3642 10.119 14.2667 10.1123C14.2622 10.112 14.2579 10.1117 14.2539 10.1114C14.2536 10.1074 14.2533 10.1031 14.253 10.0986C14.2463 10.0011 14.2458 9.86615 14.2458 9.6195V1.5C14.2458 1.25335 14.2463 1.11844 14.253 1.02092C14.2533 1.01638 14.2536 1.01212 14.2539 1.00813C14.2579 1.00782 14.2622 1.0075 14.2667 1.0072C14.3642 1.00054 14.4991 1 14.7458 1H19.17C19.3159 1 19.3903 1.00027 19.4444 1.0029C19.4461 1.00298 19.4477 1.00306 19.4493 1.00315C19.4502 1.00444 19.4511 1.00579 19.452 1.00722C19.4824 1.05201 19.5213 1.1154 19.5971 1.24006Z" stroke="black" stroke-width="2"/>
<rect x="25.3585" y="11.5216" width="11.0692" height="2.51572" rx="1" fill="black"/>
<rect x="24.3648" y="15.6474" width="10.0629" height="2.51572" rx="1" fill="black"/>
<path d="M32.9057 22.7008V6.51349C32.9057 5.19223 32.9057 4.5316 33.1026 4.26619C33.3652 3.91231 33.8285 3.77204 34.2433 3.92082C34.5544 4.03241 34.9208 4.58208 35.6537 5.68143L35.6537 5.68144L46.4453 21.8688C46.8931 22.5404 47.117 22.8763 47.1303 23.1526C47.1481 23.5209 46.9617 23.8692 46.6454 24.0587C46.4081 24.2008 46.0045 24.2008 45.1972 24.2008H34.4057C33.9397 24.2008 33.7068 24.2008 33.523 24.1247C33.278 24.0232 33.0833 23.8285 32.9818 23.5835C32.9057 23.3997 32.9057 23.1668 32.9057 22.7008Z" fill="black"/>
<path fill-rule="evenodd" clip-rule="evenodd" d="M26.34 26.0122C26.34 23.9281 24.6505 22.2386 22.5664 22.2386H3.77358C1.68949 22.2386 0 23.9281 0 26.0122V26.0122C0 28.0963 1.68949 29.7858 3.77358 29.7858H22.5664C24.6505 29.7858 26.34 28.0963 26.34 26.0122V26.0122ZM3.9 24.54C3.07157 24.54 2.4 25.2116 2.4 26.04C2.4 26.8684 3.07157 27.54 3.9 27.54H22.5C23.3284 27.54 24 26.8684 24 26.04C24 25.2116 23.3284 24.54 22.5 24.54H3.9Z" fill="black"/>
</svg>
