<?xml version="1.0" encoding="utf-8"?>
<!-- Svg Vector Icons : http://www.onlinewebfonts.com/icon -->
<!DOCTYPE svg PUBLIC "-//W3C//DTD SVG 1.1//EN" "http://www.w3.org/Graphics/SVG/1.1/DTD/svg11.dtd">
<svg version="1.1" xmlns="http://www.w3.org/2000/svg" xmlns:xlink="http://www.w3.org/1999/xlink" x="0px" y="0px" viewBox="0 0 1000 1000" enable-background="new 0 0 1000 1000" xml:space="preserve">
<metadata> Svg Vector Icons : http://www.onlinewebfonts.com/icon </metadata>
<g><g transform="translate(0.000000,511.000000) scale(0.100000,-0.100000)"><path d="M4675.8,4996.6c-262-40.1-528.7-141.6-986.5-372.9c-505.1-257.3-816.6-443.7-1194.2-724.5c-821.3-606.5-1404.2-1305.1-1675.6-2006.1c-85-214.8-136.9-389.4-115.6-389.4c4.7,0,59,26,122.7,59c405.9,205.3,932.2-120.4,934.6-578.2c0-252.5-99.1-439-313.9-582.9L1333.9,326l193.5-61.4c283.2-89.7,608.9-134.5,953.5-134.5c354-2.4,476.7,21.3,1144.6,207.7c752.9,210.1,870.9,231.3,1345.2,231.3c344.6,0,455.5-9.4,660.8-54.3c200.6-42.5,861.4-217.1,1043.2-276.1c35.4-9.4,35.4-2.4,14.2,77.9c-66.1,238.4,37.8,566.4,233.7,736.3c486.2,429.5,1257.9,85,1257.9-564.1c0-75.5-11.8-167.6-23.6-203c-14.2-35.4-18.9-68.4-11.8-75.5c25.9-26,339.9,70.8,526.3,160.5c304.5,151,538.1,424.8,618.3,729.3c66.1,252.5-167.6,934.6-486.2,1420.8l-103.8,155.8L8577,2554c-243.1-243.1-573.5-238.4-804.8,9.4c-250.2,266.7-203,649,103.8,856.7l94.4,63.7L7739.2,3675c-424.8,351.7-929.8,675-1515.2,965.3c-427.2,212.4-571.2,271.4-781.2,321C5246.9,5006.1,4859.9,5024.9,4675.8,4996.6z M4479.9,3623.1c169.9-80.2,323.3-231.3,410.6-410.6c61.4-125.1,68.4-162.8,68.4-363.4c0-195.9-7.1-240.7-63.7-354c-82.6-167.6-252.5-337.5-420.1-420.1c-113.3-56.7-158.1-63.7-354-63.7s-240.7,7.1-356.4,66.1c-160.5,77.9-358.7,278.5-424.8,434.3c-63.7,144-82.6,389.4-44.8,547.5c59,250.2,278.5,490.9,540.5,594.7C4000.8,3722.2,4300.5,3705.7,4479.9,3623.1z"/><path d="M3913.5,3259.6c-271.4-134.5-339.9-481.4-141.6-708c101.5-113.3,195.9-158.1,349.3-160.5c186.4-2.4,328,85,410.6,250.2c75.5,151,77.9,254.9,4.7,410.7C4423.3,3297.4,4163.6,3384.7,3913.5,3259.6z"/><path d="M8093.2,3103.8c-28.3-14.2-63.7-56.6-80.2-96.7c-35.4-85,2.3-172.3,99.1-226.6c127.5-70.8,280.8,68.4,245.4,217.1c-9.4,33.1-30.7,73.2-44.8,87.3C8265.4,3122.7,8149.8,3134.5,8093.2,3103.8z"/><path d="M994.1,1222.9c-82.6-37.8-155.8-136.9-169.9-231.3c-14.1-122.7,66.1-243.1,193.5-287.9c181.7-61.4,354,70.8,354,273.8c0,80.2-14.2,115.6-73.2,174.6C1220.6,1230,1081.4,1260.6,994.1,1222.9z"/><path d="M7260.1,814.6c-113.3-59-212.4-210-212.4-325.7c0-96.8,99.1-266.7,184.1-313.9c96.8-56.7,276.1-59,380-7.1c153.4,80.2,221.8,278.5,155.8,453.1C7687.2,831.1,7460.7,918.4,7260.1,814.6z"/><path d="M4713.5,182.1C4494.1,151.4,4107,59.3,3868.6-18.5c-18.9-7.1,7.1-89.7,77.9-245.4c136.9-313.9,278.5-729.3,316.2-932.2c42.5-233.7,18.9-630.1-59-911c-33-122.7-108.6-368.2-165.2-547.5c-144-446-184.1-649-184.1-939.3c-2.4-271.4,30.7-441.3,118-630.1c238.4-514.5,932.2-717.4,1510.5-443.7c422.5,198.3,608.9,531,606.5,1073.8c-2.4,323.3-30.7,453.1-221.8,1062c-214.8,686.8-254.9,1000.7-174.7,1383c44.9,217.1,167.6,575.8,304.5,887.4c68.4,155.8,94.4,238.4,75.5,243.1c-96.8,33.1-481.5,132.2-630.2,162.9C5206.8,191.5,4900,208,4713.5,182.1z M4619.1-3096c47.2-37.8,56.6-73.2,70.8-271.4c21.2-276.1,82.6-422.4,254.9-613.6c120.4-132.2,144-205.3,106.2-309.2c-21.2-54.3-146.3-113.3-210-96.7c-85,21.2-332.8,304.4-410.6,467.3c-94.4,198.2-118,318.6-120.4,566.4c0,193.5,2.4,207.7,61.4,252.5C4449.2-3039.4,4548.3-3037,4619.1-3096z"/></g></g>
</svg>