<?xml version="1.0" encoding="UTF-8" standalone="no"?>
<svg
   xmlns:dc="http://purl.org/dc/elements/1.1/"
   xmlns:cc="http://creativecommons.org/ns#"
   xmlns:rdf="http://www.w3.org/1999/02/22-rdf-syntax-ns#"
   xmlns:svg="http://www.w3.org/2000/svg"
   xmlns="http://www.w3.org/2000/svg"
   xmlns:sodipodi="http://sodipodi.sourceforge.net/DTD/sodipodi-0.dtd"
   xmlns:inkscape="http://www.inkscape.org/namespaces/inkscape"
   viewBox="10 5 90 90"
   x="0px"
   y="0px"
   version="1.1"
   id="svg12"
   sodipodi:docname="noun_Pitch In_1018925_white2.svg"
   inkscape:version="0.92.4 (5da689c313, 2019-01-14)">
  <metadata
     id="metadata18">
    <rdf:RDF>
      <cc:Work
         rdf:about="">
        <dc:format>image/svg+xml</dc:format>
        <dc:type
           rdf:resource="http://purl.org/dc/dcmitype/StillImage" />
        <dc:title>Pitch in</dc:title>
      </cc:Work>
    </rdf:RDF>
  </metadata>
  <defs
     id="defs16" />
  <sodipodi:namedview
     pagecolor="#ffffff"
     bordercolor="#666666"
     borderopacity="1"
     objecttolerance="10"
     gridtolerance="10"
     guidetolerance="10"
     inkscape:pageopacity="0"
     inkscape:pageshadow="2"
     inkscape:window-width="1920"
     inkscape:window-height="1001"
     id="namedview14"
     showgrid="false"
     inkscape:pagecheckerboard="true"
     inkscape:zoom="2.6222222"
     inkscape:cx="45"
     inkscape:cy="45"
     inkscape:window-x="-9"
     inkscape:window-y="-9"
     inkscape:window-maximized="1"
     inkscape:current-layer="svg12" />
  <title
     id="title2">Pitch in</title>
  <path
     d="M71.55,75.31l-.18.2c.15.73.3,1.45.45,2.18a1.05,1.05,0,0,1-.21.86,1,1,0,0,1-.79.38l-3.57,0a2.15,2.15,0,0,1-.3,0,1.41,1.41,0,0,1-.33-.11l-.74-.34-2.05-.93-.43-.2a1.05,1.05,0,0,1-.56-.64,1.07,1.07,0,0,1,.13-.85l.9-1.39.58-.91.06-.08c0-.55.09-1.11.13-1.65h0a1.25,1.25,0,0,1,.06-.37,1.13,1.13,0,0,1,.22-.38,1.09,1.09,0,0,1,.48-.3h0l.34-.1,1.07-.33A10.28,10.28,0,0,0,68,69.76l.9-.43.09,0,.14-.07a1.06,1.06,0,0,1,.41-.08h.11a1,1,0,0,1,.37.12.94.94,0,0,1,.27.2,1.1,1.1,0,0,1,.18.23l.08.15h0l.87,1.43.05,0,.35.35.78.77.12.12a1,1,0,0,1,.29.5h0v0h0v0a1,1,0,0,1-.26.85l-1.2,1.3"
     id="path4"
     style="fill:#ffffff" />
  <path
     d="M38.27,29.88a7.9,7.9,0,0,1-10.33-7.53,7.88,7.88,0,0,1,7.91-7.87,7.82,7.82,0,0,1,2.17.3,8,8,0,0,1,4.92,4.15A8,8,0,0,1,43,25.57a8,8,0,0,1-4.78,4.31"
     id="path6"
     style="fill:#ffffff" />
  <path
     d="M53.19,50.35a2.35,2.35,0,0,1,2.75,1.85c0,.11,5.32,27.21,5.42,27.76h0a1.06,1.06,0,0,0,1,.85H73.77a1.05,1.05,0,0,0,1-.89s5.31-27.39,5.37-27.72a2.34,2.34,0,0,1,4.6.89c-.06.33-5.45,28.18-5.55,28.63a5.12,5.12,0,0,1-1.59,2.62,4.58,4.58,0,0,1-1.63.91,5.41,5.41,0,0,1-1.62.24H62.07a6.41,6.41,0,0,1-1.22-.1A5.16,5.16,0,0,1,59,84.71a4.67,4.67,0,0,1-1.52-1.53,5.41,5.41,0,0,1-.64-1.75c-.1-.55-5.52-28.21-5.54-28.32a2.34,2.34,0,0,1,1.85-2.75"
     id="path8"
     style="fill:#ffffff" />
  <path
     d="M30.19,44.12a5,5,0,0,1-.83-3.34,3.33,3.33,0,0,1,6.16-1.44,1.56,1.56,0,0,1,.3.63,1.57,1.57,0,0,1,.3-.63,3.32,3.32,0,0,1,6.16,1.44,5,5,0,0,1-.83,3.34C40.25,46,36,49.77,35.82,49.91c-.16-.14-4.43-3.92-5.63-5.79M21.26,42.5l4.12,10.74h0c-.34,12.49-.81,29.18-.84,29.87a2.42,2.42,0,0,0,.63,1.7,2.29,2.29,0,0,0,3.48-.24,3.29,3.29,0,0,0,.3-.72c1.29-4.15,6.88-25,6.88-25s5.66,21.08,6.9,25a3.21,3.21,0,0,0,.27.65,2.29,2.29,0,0,0,3.48.24,2.44,2.44,0,0,0,.63-1.7c0-1.1-1.14-40.42-1.17-41.68,0,0,18.65-4.74,22-5.72a2.39,2.39,0,0,0,.48-.18,2,2,0,0,0,.29-3.06,2.14,2.14,0,0,0-1.47-.59c-1,0-37.53.08-38.64.07l-.25,0a1.45,1.45,0,0,0-.73.27,1.58,1.58,0,0,0-.23.2,1,1,0,0,0-.15.2.63.63,0,0,0-.06.1l-.23.31c-.68,1-4.76,6.92-5.45,7.95l-.11.17,0,0a1.42,1.42,0,0,0-.12.27l0,.11a1.67,1.67,0,0,0,0,.42,1.83,1.83,0,0,0,.1.47"
     id="path10"
     style="fill:#ffffff" />
</svg>
