<?xml version="1.0" encoding="UTF-8" standalone="no"?>
<!-- Created with Inkscape (http://www.inkscape.org/) -->

<svg
   xmlns:dc="http://purl.org/dc/elements/1.1/"
   xmlns:cc="http://creativecommons.org/ns#"
   xmlns:rdf="http://www.w3.org/1999/02/22-rdf-syntax-ns#"
   xmlns:svg="http://www.w3.org/2000/svg"
   xmlns="http://www.w3.org/2000/svg"
   xmlns:sodipodi="http://sodipodi.sourceforge.net/DTD/sodipodi-0.dtd"
   xmlns:inkscape="http://www.inkscape.org/namespaces/inkscape"
   width="26.1mm"
   height="19mm"
   viewBox="0 0 26.100001 19"
   version="1.1"
   id="svg8"
   inkscape:version="0.92.4 (5da689c313, 2019-01-14)"
   sodipodi:docname="noun_Frog_152594_white.svg">
  <defs
     id="defs2" />
  <sodipodi:namedview
     id="base"
     pagecolor="#ffffff"
     bordercolor="#666666"
     borderopacity="1.0"
     inkscape:pageopacity="0.0"
     inkscape:pageshadow="2"
     inkscape:zoom="2.8"
     inkscape:cx="96.728449"
     inkscape:cy="-29.464101"
     inkscape:document-units="mm"
     inkscape:current-layer="layer1"
     showgrid="false"
     inkscape:window-width="1920"
     inkscape:window-height="1001"
     inkscape:window-x="-9"
     inkscape:window-y="-9"
     inkscape:window-maximized="1"
     inkscape:pagecheckerboard="true"
     fit-margin-top="0"
     fit-margin-left="0"
     fit-margin-right="0"
     fit-margin-bottom="1.2" />
  <metadata
     id="metadata5">
    <rdf:RDF>
      <cc:Work
         rdf:about="">
        <dc:format>image/svg+xml</dc:format>
        <dc:type
           rdf:resource="http://purl.org/dc/dcmitype/StillImage" />
        <dc:title></dc:title>
      </cc:Work>
    </rdf:RDF>
  </metadata>
  <g
     inkscape:label="Livello 1"
     inkscape:groupmode="layer"
     id="layer1"
     transform="translate(-49.707548,-67.467656)">
    <g
       id="g838"
       transform="matrix(0.26458333,0,0,0.26458333,49.692045,63.63925)"
       style="fill:#ffffff;fill-opacity:1">
      <g
         id="g819"
         style="fill:#ffffff;fill-opacity:1">
        <path
           id="path815"
           d="m 53.893,81.15 c -4.05,-1.67 -26.459,-3.809 -35.562,-4.562 -0.348,-0.026 -0.569,-0.046 -0.641,-0.053 -0.829,-0.078 -1.439,-0.812 -1.367,-1.642 0.074,-0.829 0.792,-1.437 1.633,-1.378 0.103,0.009 0.389,0.032 0.831,0.07 5.337,0.385 17.599,0.29 21.787,-4.13 1.196,-1.264 1.64,-2.8 1.356,-4.698 -0.39,-2.606 -1.633,-4.613 -3.801,-6.134 -5.812,-4.079 -16.409,-3.395 -21.744,-2.721 -0.004,0.006 -0.008,0.013 -0.012,0.019 -8.995,1.61 -15.667,7.421 -15.667,14.362 0,7.783 8.385,14.276 19.037,14.882 l 0.025,0.055 1.63,0.005 v 0 0 l 38.571,-0.002 c -1.705,-1.48 -3.957,-3.201 -6.076,-4.073 z"
           inkscape:connector-curvature="0"
           style="fill:#ffffff;fill-opacity:1" />
        <path
           id="path817"
           d="m 63.247,42.95 33.241,-9.473 c 2.829,-4.857 2.979,-8.185 -0.527,-8.779 -3.044,-0.517 -5.981,-0.89 -8.828,-1.15 -0.644,-4.639 -4.615,-8.213 -9.431,-8.213 -4.851,0 -8.847,3.627 -9.444,8.316 -25.467,2.843 -40.835,16.656 -49.636,28.956 6.13,-0.542 15.464,-0.521 21.248,3.537 2.845,1.995 4.546,4.744 5.058,8.167 0.424,2.841 -0.301,5.273 -2.155,7.231 -1.646,1.738 -4.081,2.915 -6.795,3.704 3.447,0.381 6.931,0.805 10.003,1.248 0.917,-0.254 1.734,-0.571 2.417,-0.965 1.753,-1.011 3.484,-2.063 5.2,-3.138 L 64.62,85.226 h 18.174 c 1.755,0 3.177,-1.422 3.177,-3.177 0,-1.754 -1.422,-3.176 -3.177,-3.176 H 72.54 L 63.983,65.362 C 77.089,55.833 88.024,45.308 93.912,37.339 l -29.841,8.504 c -0.138,0.039 -0.276,0.058 -0.413,0.058 -0.655,0 -1.258,-0.431 -1.446,-1.092 -0.228,-0.799 0.235,-1.632 1.035,-1.859 z M 77.702,21.672 c 1.763,0 3.193,1.429 3.193,3.193 0,1.763 -1.431,3.192 -3.193,3.192 -1.762,0 -3.192,-1.429 -3.192,-3.192 0,-1.764 1.43,-3.193 3.192,-3.193 z"
           inkscape:connector-curvature="0"
           style="fill:#ffffff;fill-opacity:1" />
      </g>
      <text
         id="text821"
         font-weight="bold"
         font-size="5px"
         y="115"
         x="0"
         style="font-weight:bold;font-size:5px;font-family:'Helvetica Neue', Helvetica, Arial-Unicode, Arial, Sans-serif;fill:#ffffff;fill-opacity:1">Created by Luis Prado</text>
      <text
         id="text823"
         font-weight="bold"
         font-size="5px"
         y="120"
         x="0"
         style="font-weight:bold;font-size:5px;font-family:'Helvetica Neue', Helvetica, Arial-Unicode, Arial, Sans-serif;fill:#ffffff;fill-opacity:1">from the Noun Project</text>
    </g>
  </g>
</svg>
