<?xml version="1.0" encoding="UTF-8" standalone="no"?>
<!-- Svg Vector Icons : http://www.onlinewebfonts.com/icon -->

<svg
   xmlns:dc="http://purl.org/dc/elements/1.1/"
   xmlns:cc="http://creativecommons.org/ns#"
   xmlns:rdf="http://www.w3.org/1999/02/22-rdf-syntax-ns#"
   xmlns:svg="http://www.w3.org/2000/svg"
   xmlns="http://www.w3.org/2000/svg"
   xmlns:sodipodi="http://sodipodi.sourceforge.net/DTD/sodipodi-0.dtd"
   xmlns:inkscape="http://www.inkscape.org/namespaces/inkscape"
   version="1.1"
   x="0px"
   y="0px"
   viewBox="0 0 1000 1000"
   enable-background="new 0 0 1000 1000"
   xml:space="preserve"
   id="svg20"
   sodipodi:docname="rapa_white.svg"
   inkscape:version="0.92.4 (5da689c313, 2019-01-14)"><defs
   id="defs24" /><sodipodi:namedview
   pagecolor="#ffffff"
   bordercolor="#666666"
   borderopacity="1"
   objecttolerance="10"
   gridtolerance="10"
   guidetolerance="10"
   inkscape:pageopacity="0"
   inkscape:pageshadow="2"
   inkscape:window-width="2400"
   inkscape:window-height="1271"
   id="namedview22"
   showgrid="false"
   inkscape:zoom="0.236"
   inkscape:cx="-144.0678"
   inkscape:cy="500"
   inkscape:window-x="-9"
   inkscape:window-y="-9"
   inkscape:window-maximized="1"
   inkscape:current-layer="svg20" />
<metadata
   id="metadata2"> Svg Vector Icons : http://www.onlinewebfonts.com/icon <rdf:RDF><cc:Work
     rdf:about=""><dc:format>image/svg+xml</dc:format><dc:type
       rdf:resource="http://purl.org/dc/dcmitype/StillImage" /><dc:title></dc:title></cc:Work></rdf:RDF></metadata>
<g
   id="g18"
   style="fill:#ffffff;fill-opacity:1"><g
     transform="translate(0.000000,511.000000) scale(0.100000,-0.100000)"
     id="g16"
     style="fill:#ffffff;fill-opacity:1"><path
       d="M4507.1,4981.9c-123.8-58.1-123.8-78.3,65.7-1215.3c98.5-586.2,184.4-1086.4,192-1109.2c10.1-37.9,45.5-45.5,202.1-45.5c161.7,0,186.9,5.1,186.9,45.5c0,22.7-83.4,538.2-186.9,1142c-179.4,1048.5-189.5,1099.1-255.2,1154.7C4641,5017.3,4590.5,5022.3,4507.1,4981.9z"
       id="path4"
       style="fill:#ffffff;fill-opacity:1" /><path
       d="M6728,4981.9c-30.3-15.1-63.2-45.5-70.7-68.2c-45.5-108.7-795.9-2334.6-790.8-2339.7c10.1-7.6,384-60.6,389.1-55.6c0,2.5,174.3,520.5,389.1,1149.6c348.7,1035.9,381.5,1149.6,356.3,1215.3c-30.3,68.2-121.3,131.4-187,126.3C6796.2,5009.7,6758.3,4997.1,6728,4981.9z"
       id="path6"
       style="fill:#ffffff;fill-opacity:1" /><path
       d="M2677.9,4575.1c-32.8-17.7-70.7-65.7-83.4-106.1c-17.7-65.7,30.3-207.2,371.4-1046c217.3-533.1,396.7-972.7,399.2-977.8c10.1-10.1,356.2,63.2,368.9,78.3c10.1,10.1-449.7,1169.8-720.1,1821.7C2910.3,4595.4,2829.5,4650.9,2677.9,4575.1z"
       id="path8"
       style="fill:#ffffff;fill-opacity:1" /><path
       d="M5482.4,4158.3c-50.5-40.4-65.7-113.7-154.1-788.3c-53.1-409.3-93.5-745.4-91-747.9c2.5-2.5,93.5-12.6,202.1-22.7c154.1-12.6,194.6-10.1,194.6,17.7c0,17.7,40.4,343.6,88.4,722.6c58.1,472.5,78.3,707.4,63.2,750.4C5742.6,4203.7,5583.5,4239.1,5482.4,4158.3z"
       id="path10"
       style="fill:#ffffff;fill-opacity:1" /><path
       d="M3650.6,3736.3c-35.4-32.8-63.2-83.4-63.2-113.7c0-27.8,113.7-280.5,255.2-558.4l252.7-507.8l93.5,15.2c50.5,7.6,146.5,15.2,214.8,15.2h118.8l-290.6,581.1c-166.8,331-310.8,591.2-338.6,606.4C3809.8,3817.2,3713.8,3802,3650.6,3736.3z"
       id="path12"
       style="fill:#ffffff;fill-opacity:1" /><path
       d="M4408.6,2182.4c-1677.7-151.6-2890.4-808.5-3173.4-1720.6C1098.7,27.2,1177.1-490.7,1442.4-943c48-80.8,176.9-237.5,288-351.2c331-338.6,758-583.6,1377-793.3c174.3-60.6,401.7-151.6,507.8-204.7c338.6-169.3,727.7-530.6,874.2-816.1c70.7-136.4,159.2-427,199.6-646.8c27.8-161.7,32.8-323.4,22.7-656.9c-15.2-454.8-5.1-475,75.8-189.5c40.4,139,116.2,295.6,424.5,871.7c78.3,151.6,131.4,290.6,169.3,467.4c70.7,313.3,171.8,510.4,346.2,669.6c207.2,189.5,520.5,371.4,765.6,444.7c469.9,141.5,682.2,222.3,998,376.5c684.7,336,1094,750.4,1268.4,1288.6c88.4,277.9,96,674.6,15.1,934.8c-270.3,859.1-1336.6,1493.2-2850,1692.8C5555.7,2192.5,4752.2,2212.8,4408.6,2182.4z M8375.4,148.5c83.4-80.9,80.9-179.4-10.1-409.3c-98.5-252.7-229.9-419.4-464.9-591.2c-219.8-164.2-298.1-181.9-406.8-96c-58.1,45.5-68.2,70.7-60.6,156.7c7.6,96,20.2,113.7,192,245.1c212.2,159.2,308.3,288,384.1,520.5c30.3,91,78.3,179.4,108.6,199.6C8198.5,229.4,8304.6,221.8,8375.4,148.5z M7167.6-1056.7c98.5-93.5,75.8-250.1-48-313.3c-146.5-75.8-298.1,15.2-298.1,176.9C6821.5-1023.8,7038.8-935.4,7167.6-1056.7z"
       id="path14"
       style="fill:#ffffff;fill-opacity:1" /></g></g>
</svg>